<?xml version="1.0" encoding="utf-8"?>
<!-- Svg Vector Icons : http://www.sfont.cn -->
<!DOCTYPE svg PUBLIC "-//W3C//DTD SVG 1.1//EN" "http://www.w3.org/Graphics/SVG/1.1/DTD/svg11.dtd">
<svg version="1.1" xmlns="http://www.w3.org/2000/svg" xmlns:xlink="http://www.w3.org/1999/xlink" x="0px" y="0px" viewBox="0 0 1000 1000" enable-background="new 0 0 1000 1000" xml:space="preserve">
<metadata> Svg Vector Icons : http://www.sfont.cn </metadata>
<g><path fill="#FF5F07" d="M845.9,154.1C653.7-38,346.3-38,154.1,154.1C-38,346.3-38,653.7,154.1,845.9c192.2,192.2,499.6,192.2,691.8,0C1038,653.7,1038,346.3,845.9,154.1z M742.1,526.9H526.9v215.2c0,15.4-11.5,26.9-26.9,26.9c-15.4,0-26.9-11.5-26.9-26.9V526.9H257.9c-15.4,0-26.9-11.5-26.9-26.9c0-15.4,11.5-26.9,26.9-26.9h215.2V257.9c0-15.4,11.5-26.9,26.9-26.9c15.4,0,26.9,11.5,26.9,26.9v215.2h215.2c15.4,0,26.9,11.5,26.9,26.9C769,515.4,757.5,526.9,742.1,526.9z"/></g>
</svg>