<?xml version="1.0" encoding="utf-8"?>
<!-- Svg Vector Icons : http://www.sfont.cn -->
<!DOCTYPE svg PUBLIC "-//W3C//DTD SVG 1.1//EN" "http://www.w3.org/Graphics/SVG/1.1/DTD/svg11.dtd">
<svg version="1.1" xmlns="http://www.w3.org/2000/svg" xmlns:xlink="http://www.w3.org/1999/xlink" x="0px" y="0px" viewBox="0 0 1000 1000" enable-background="new 0 0 1000 1000" xml:space="preserve">
<metadata> Svg Vector Icons : http://www.sfont.cn </metadata>
<g><path fill="#A4A4A4" d="M985.4,494.9C938.7,434.1,739.1,193.8,500,193.8c-239.1,0-438.7,240.3-485.4,301.1c-6.3,8.2-6.1,19.5,0.4,27.4c47.4,58.2,246.5,283.9,485,283.9c238.5,0,437.6-225.7,485-283.9C991.5,514.3,991.7,503,985.4,494.9z M496.1,684.8c-98.2,0-178.1-79-178.1-176.1c0-97.1,79.9-176.1,178.1-176.1c98.2,0,178.1,79,178.1,176.1C674.2,605.8,594.3,684.8,496.1,684.8z"/><path fill="#A4A4A4" d="M496.1,395.5c-63.2,0-114.5,50.8-114.5,113.2c0,62.4,51.4,113.2,114.5,113.2c63.1,0,114.5-50.8,114.5-113.2C610.6,446.3,559.2,395.5,496.1,395.5z"/></g>
</svg>