<?xml version="1.0" encoding="utf-8"?>
<!-- Svg Vector Icons : http://www.sfont.cn -->
<!DOCTYPE svg PUBLIC "-//W3C//DTD SVG 1.1//EN" "http://www.w3.org/Graphics/SVG/1.1/DTD/svg11.dtd">
<svg version="1.1" xmlns="http://www.w3.org/2000/svg" xmlns:xlink="http://www.w3.org/1999/xlink" x="0px" y="0px" viewBox="0 0 1000 1000" enable-background="new 0 0 1000 1000" xml:space="preserve">
<metadata> Svg Vector Icons : http://www.sfont.cn </metadata>
<g><path fill="#fff" d="M177.5,54c48.2,25.1,175,150.1,190.7,189.3c-7.3,18.8-49.4,61-67.9,79.5c-35,35-52.6,52.6-52.6,76.9c0,36.1,15.4,111.9,118.3,213.7c97.5,96.3,196.1,148.3,239.3,148.3c1.9,0,3.8-0.1,5.5-0.2c24.2-2.2,44.3-20.3,100.3-75.6c15.8-15.6,37.9-37.5,51.3-48.6c40.2,21,157.6,107.6,185.4,201.8C930.8,867.7,844,949.1,732.6,949.1c-131.2,0-318.7-98.2-466.7-244.4c-97-95.8-233.7-298.8-213.2-465.4C62.2,162.3,103,101.6,177.5,54 M173.8,10.3c-1.8,0-3.3,0.4-4.5,1.1c-323.1,191-78.6,577.3,68,722.2C384,878.5,581.6,989.7,732.6,989.7c150.8,0,263.5-126,257.2-151.2c-29.5-129-205.2-245.7-231-245.7c-0.2,0-0.5,0-0.6,0c-23.3,2.1-127.5,126-150.8,128.1c-0.6,0.1-1.2,0.1-1.8,0.1c-26,0-113.3-40.3-210.7-136.6c-99.9-98.7-106.3-165.8-106.3-184.7c0-18.9,116.9-107.1,121.1-155.4C413.5,198.1,216,10.3,173.8,10.3L173.8,10.3z"/></g>
</svg>